# xmcd
#
# Track frame offsets: 
#        150
#        5957
#        34685
#        42595
#        72262
#        80540
#        106675
#        129765
#        134211
#        141410
#        152762
#        182725
#        209597
#        216462
#        244037
#        258097
#        277987
#
# Disc length: 3780 seconds
#
# Revision: 7
# Processed by: cddbd v1.5.2PL0 Copyright (c) Steve Scherf et al.
# Submitted via: ExactAudioCopy v1.0b3
#
DISCID=020ec211
DTITLE=Boards of Canada - Music Has the Right to Children
DYEAR=1998
DGENRE=Electronic
TTITLE0=Wildlife Analysis
TTITLE1=An Eagle in Your Mind
TTITLE2=The Color of the Fire
TTITLE3=Telephasic Workshop
TTITLE4=Triangles and Rhombuses
TTITLE5=Sixtyten
TTITLE6=Turquoise Hexagon Sun
TTITLE7=Kaini Industries
TTITLE8=Bocuma
TTITLE9=Roygbiv
TTITLE10=Rue the Whirl
TTITLE11=Aquarius
TTITLE12=Olson
TTITLE13=Pete Standing Alone
TTITLE14=Smokes Quantity
TTITLE15=Open the Light
TTITLE16=One Very Important Thought
EXTD=
EXTT0=
EXTT1=
EXTT2=
EXTT3=
EXTT4=
EXTT5=
EXTT6=
EXTT7=
EXTT8=
EXTT9=
EXTT10=
EXTT11=
EXTT12=
EXTT13=
EXTT14=
EXTT15=
EXTT16=
PLAYORDER=
